<?xml version="1.0" encoding="utf-8"?>
<!-- Generator: Adobe Illustrator 28.0.0, SVG Export Plug-In . SVG Version: 6.00 Build 0)  -->
<svg version="1.1" id="Layer_1" xmlns="http://www.w3.org/2000/svg" xmlns:xlink="http://www.w3.org/1999/xlink" x="0px" y="0px"
	 viewBox="0 0 249.3 186.8" style="enable-background:new 0 0 249.3 186.8;" xml:space="preserve">
<style type="text/css">
	.st0{fill:none;}
	.st1{fill:#FFFFFF;}
	.st2{fill:#00CDC2;}
	.st3{fill:#BFF3F0;}
	.st4{fill:#939598;}
</style>
<rect x="-30.4" y="41.6" class="st0" width="307.5" height="145.2"/>
<g>
	<path class="st1" d="M127.6,164.2c-9,0-18.7-6.1-18.7-19.6s9.7-19.7,18.7-19.7c8.9,0,18.6,6.1,18.6,19.7S136.5,164.2,127.6,164.2
		 M127.6,110.8c-18.2,0-33.6,13.3-33.6,33.9c0,20.5,15.4,33.8,33.6,33.8c18.1,0,33.5-13.3,33.5-33.8
		C161.1,124.1,145.7,110.8,127.6,110.8 M92.7,112.2H75.8L63,133.2l-12.8-21.1H33l20.9,32.5L33,177.2h17l12.7-21.1l12.8,21.1h17.5
		l-21-32.4L92.7,112.2z M171.4,112.2v65H186v-50.3h10.9v50.3h14.6v-50.3h10.9v50.3H237v-65H171.4z M9.7,177.2h14.6v-65H9.7V177.2z"
		/>
</g>
<polygon class="st2" points="18.1,103.8 209.7,103.8 119.8,74.7 "/>
<polygon class="st3" points="125.2,6.7 9.9,97.7 125.2,62.9 "/>
<polygon class="st4" points="133.8,71.1 237,103 133.8,21.3 "/>
</svg>
